<svg width="46" height="48" viewBox="0 0 46 48" fill="none" xmlns="http://www.w3.org/2000/svg">
<circle cx="23" cy="23" r="22.5" fill="white" stroke="#CECECE"/>
<g filter="url(#filter0_d_42_16)">
<path fill-rule="evenodd" clip-rule="evenodd" d="M13.0035 27.2224L18.7775 32.9964C19.8324 34.0513 20.3599 34.5787 21.004 34.654C21.1477 34.6708 21.293 34.6708 21.4368 34.654C22.0808 34.5787 22.6083 34.0513 23.6632 32.9964C24.7181 31.9415 25.2455 31.4142 25.3208 30.77C25.3376 30.6262 25.3376 30.4809 25.3208 30.3372C25.2455 29.6931 24.7181 29.1656 23.6632 28.1107L22.366 26.8135L18.7447 23.1922L17.8892 22.3368C16.8343 21.2819 16.3069 20.7544 15.6628 20.6792C15.519 20.6624 15.3738 20.6624 15.23 20.6792C14.5859 20.7544 14.0584 21.2819 13.0035 22.3368C11.9486 23.3917 11.4212 23.9191 11.346 24.5631C11.3292 24.707 11.3292 24.8522 11.346 24.996C11.4212 25.6401 11.9486 26.1675 13.0035 27.2224ZM23.1923 18.7445L26.8136 22.3658L28.1109 23.6631C29.1658 24.718 29.6932 25.2454 30.3373 25.3207C30.4811 25.3375 30.6263 25.3375 30.7702 25.3207C31.4143 25.2454 31.9416 24.718 32.9965 23.6631C34.0514 22.6082 34.5789 22.0807 34.6541 21.4367C34.6709 21.2929 34.6709 21.1476 34.6541 21.0039C34.5789 20.3597 34.0514 19.8323 32.9965 18.7774L27.2226 13.0034C26.1677 11.9485 25.6402 11.4211 24.9961 11.3459C24.8524 11.3291 24.7071 11.3291 24.5633 11.3459C23.9193 11.4211 23.3918 11.9485 22.3369 13.0034C21.282 14.0583 20.7546 14.5857 20.6793 15.2298C20.6625 15.3736 20.6625 15.5189 20.6793 15.6627C20.7546 16.3068 21.282 16.8342 22.3369 17.8891L23.1923 18.7445Z" fill="#1C274C"/>
<path opacity="0.5" d="M22.366 26.8136L26.8136 22.3659L23.1923 18.7446L18.7446 23.1923L22.366 26.8136Z" fill="#1C274C"/>
<path opacity="0.5" fill-rule="evenodd" clip-rule="evenodd" d="M29.4039 11.2956C29.7456 10.9539 30.2995 10.9539 30.6412 11.2956L34.2626 14.9169C34.6043 15.2586 34.6043 15.8127 34.2626 16.1544C33.9209 16.4961 33.3669 16.4961 33.0252 16.1544L29.4039 12.533C29.0622 12.1913 29.0622 11.6373 29.4039 11.2956ZM11.2957 29.4021C11.6374 29.0604 12.1914 29.0604 12.5332 29.4021L16.1545 33.0235C16.4962 33.3652 16.4962 33.9192 16.1545 34.2609C15.8128 34.6027 15.2588 34.6027 14.9171 34.2609L11.2957 30.6396C10.954 30.2979 10.954 29.7438 11.2957 29.4021Z" fill="#1C274C"/>
</g>
<defs>
<filter id="filter0_d_42_16" x="3.53943" y="8.53931" width="38.6273" height="38.6272" filterUnits="userSpaceOnUse" color-interpolation-filters="sRGB">
<feFlood flood-opacity="0" result="BackgroundImageFix"/>
<feColorMatrix in="SourceAlpha" type="matrix" values="0 0 0 0 0 0 0 0 0 0 0 0 0 0 0 0 0 0 127 0" result="hardAlpha"/>
<feOffset dy="5"/>
<feGaussianBlur stdDeviation="3.75"/>
<feComposite in2="hardAlpha" operator="out"/>
<feColorMatrix type="matrix" values="0 0 0 0 0.283654 0 0 0 0 0.283654 0 0 0 0 0.283654 0 0 0 0.2 0"/>
<feBlend mode="normal" in2="BackgroundImageFix" result="effect1_dropShadow_42_16"/>
<feBlend mode="normal" in="SourceGraphic" in2="effect1_dropShadow_42_16" result="shape"/>
</filter>
</defs>
</svg>
